# xmcd
#
# Track frame offsets: 
#        150
#        10699
#        21665
#        30134
#        42285
#        54635
#        64444
#        80672
#        97484
#        111473
#        124480
#        136084
#        148213
#        160382
#        172076
#
# Disc length: 2479 seconds
#
# Revision: 6
# Processed by: cddbd v1.5.2PL0 Copyright (c) Steve Scherf et al.
# Submitted via: ExactAudioCopy v0.95b4
#
DISCID=e309ad0f
DTITLE=Elvis Presley - The Elvis Presley Collection - Rhythm and Blues (
DTITLE=CD 2)
DYEAR=1998
DGENRE=R&B
TTITLE0=Baby Let's Play House
TTITLE1=So Glad You're Mine
TTITLE2=When It Rains, It Really Pours
TTITLE3=I Need You So
TTITLE4=A Mess Of Blues
TTITLE5=Tell Me Why 
TTITLE6=Fever
TTITLE7=Reconsider Baby
TTITLE8=What'd I Say
TTITLE9=Down In The Alley 
TTITLE10=Lawdy, Miss Clawdy - Baby, What You Want Me To Do
TTITLE11=Tiger Man
TTITLE12=My Babe
TTITLE13=Just A Little Bit
TTITLE14=Wearin' That Loved On Look
EXTD=
EXTT0=
EXTT1=
EXTT2=
EXTT3=
EXTT4=
EXTT5=
EXTT6=
EXTT7=
EXTT8=
EXTT9=
EXTT10=
EXTT11=
EXTT12=
EXTT13=
EXTT14=
PLAYORDER=
